<?xml version="1.0" encoding="utf-8"?>
<!-- Generator: Adobe Illustrator 25.2.1, SVG Export Plug-In . SVG Version: 6.00 Build 0)  -->
<svg version="1.1" id="Capa_1" xmlns="http://www.w3.org/2000/svg" xmlns:xlink="http://www.w3.org/1999/xlink" x="0px" y="0px"
	 viewBox="0 0 1388 767" style="enable-background:new 0 0 1388 767;" xml:space="preserve">
<style type="text/css">
	.st0{fill:#0F0228;}
</style>
<image style="overflow:visible;" width="1831" height="2048" xlink:href="D555D57CA7CDEBC3.png"  transform="matrix(0.24 0 0 0.24 139.2 137.76)">
</image>
<g>
	<path class="st0" d="M686.8,479.2V292c0-7.4,4.4-11.8,12.1-11.8h8.8c8.3,0,11.2,2.1,14.7,9.7l49.2,103.5l49.2-103.5
		c3.5-7.7,6.5-9.7,14.4-9.7h8.3c7.7,0,12.1,4.4,12.1,11.8v187.2c0,4.4-2.9,7.4-7.4,7.4h-8.5c-4.4,0-7.4-2.9-7.4-7.4V317.3L782,421.4
		c-2.7,5.6-5.6,8-10.9,8c-4.7,0-8-2.4-10.6-8L710,317.3v161.9c0,4.4-2.9,7.4-7.4,7.4h-8.5C689.7,486.6,686.8,483.6,686.8,479.2z"/>
	<path class="st0" d="M906.7,481c0-2.7,0.9-4.4,3.8-8.8l57.5-89.6l-56.6-87.9c-2.9-4.4-3.8-6.2-3.8-8.8c0-3.5,2.4-5.6,6.8-5.6h9.4
		c5.6,0,8,1.8,11.2,6.8l49.5,78.4l49.5-78.4c3.2-5,5.6-6.8,10.9-6.8h9.1c4.1,0,6.5,2.1,6.5,5.6c0,2.7-0.9,4.4-3.5,8.8l-56.6,87.9
		l57.5,89.6c2.7,4.4,3.5,6.2,3.5,8.8c0,3.5-2.4,5.6-6.5,5.6h-9.7c-5.6,0-7.7-1.8-10.9-6.8l-50.7-79.9l-50.4,79.9
		c-3.2,5-5.6,6.8-10.9,6.8h-8.8C909.1,486.6,906.7,484.5,906.7,481z"/>
	<path class="st0" d="M1102.5,419.3v-71.9c0-45.4,27.1-70.5,74.3-70.5c48.6,0,71.9,20.9,71.9,65.2v6.5c0,3.8-2.1,5.9-5.6,5.9h-13.3
		c-3.5,0-5.6-2.1-5.6-5.6v-6.8c0-31-14.2-44.8-47.5-44.8c-31.8,0-48.9,16.8-48.9,48.4v75.5c0,31.5,17.1,48.4,48.6,48.4
		c33.6,0,47.8-13.9,47.8-45.1v-8.6c0-3.5,2.1-5.6,5.6-5.6h13.3c3.5,0,5.6,2.1,5.6,5.9v8.3c0,44.5-23.6,65.5-72.2,65.5
		C1129.6,489.8,1102.5,464.7,1102.5,419.3z"/>
</g>
</svg>
