<svg width="138" height="138" viewBox="0 0 138 138" fill="none" xmlns="http://www.w3.org/2000/svg">
<circle cx="69" cy="69" r="69" fill="url(#paint0_linear_4513_8972)"/>
<path d="M88.1933 52.4695C88.2359 52.0128 88.3942 51.3582 88.9056 50.7767C89.5662 50.0247 90.4277 49.839 90.9543 49.7994H99.2161C100.196 49.7994 100.994 49.0048 100.994 48.0214V38.778C100.994 37.7977 100.199 37 99.2161 37H89.9741C88.9939 37 88.1963 37.7946 88.1963 38.778V47.0227C88.1659 47.4825 88.0167 48.2527 87.3957 48.9134C86.8478 49.4949 86.1872 49.7202 85.688 49.8024H77.1735C76.1933 49.8024 75.3957 50.5971 75.3957 51.5805V59.8252C75.3653 60.2849 75.2161 61.0552 74.5951 61.7159C74.0472 62.2974 73.3866 62.5227 72.8874 62.6049H65.07C64.5708 62.5227 63.9102 62.2974 63.3623 61.7159C62.8569 61.18 62.6651 60.5741 62.5951 60.1175V51.5835C62.5951 50.6032 61.8006 49.8055 60.8174 49.8055H52.2725C51.7732 49.7233 51.1126 49.498 50.5647 48.9165C50.0594 48.3806 49.8676 47.7747 49.7976 47.3181V38.778C49.7976 37.7977 49.003 37 48.0198 37H38.7778C37.7945 37 37 37.7946 37 38.778V48.0214C37 49.0017 37.7945 49.7994 38.7778 49.7994H47.0061C47.5327 49.839 48.3942 50.0277 49.0548 50.7767C49.8798 51.7144 49.7854 52.8409 49.7671 53.0297L49.8006 52.9992V59.8191C49.7702 60.2788 49.621 61.0491 49 61.7098C48.4521 62.2913 47.7915 62.5166 47.2922 62.5988H38.7778C37.7976 62.5988 37 63.3934 37 64.3768V99.222C37 100.202 37.7945 101 38.7778 101H48.0198C49 101 49.7976 100.205 49.7976 99.222V65.2689C49.8402 64.8122 49.9985 64.1576 50.5099 63.5761C51.1705 62.8241 52.032 62.6384 52.5586 62.5988H59.8067C60.3333 62.6384 61.1948 62.8271 61.8554 63.5761C62.6804 64.5138 62.586 65.6403 62.5677 65.8291L62.6012 65.7986V73.6201C62.6012 74.6005 63.3957 75.3982 64.379 75.3982H73.621C74.6012 75.3982 75.3988 74.6035 75.3988 73.6201V65.2658C75.4414 64.8091 75.5997 64.1546 76.1111 63.573C76.7717 62.821 77.6332 62.6353 78.1598 62.5957H85.4079C85.9346 62.6353 86.796 62.8241 87.4566 63.573C88.2816 64.5108 88.1872 65.6373 88.1689 65.826L88.2024 65.7956V99.2189C88.2024 100.199 88.997 100.997 89.9802 100.997H99.2222C100.202 100.997 101 100.202 101 99.2189V64.3768C101 63.3965 100.205 62.5988 99.2222 62.5988H90.6773C90.1781 62.5166 89.5175 62.2913 88.9696 61.7098C88.4642 61.1739 88.2724 60.5681 88.2024 60.1114V52.4664L88.1933 52.4695Z" fill="white"/>
<defs>
<linearGradient id="paint0_linear_4513_8972" x1="30.9915" y1="19.3409" x2="62.0048" y2="133.111" gradientUnits="userSpaceOnUse">
<stop stop-color="#0F51FB"/>
<stop offset="0.444764" stop-color="#6324FB"/>
<stop offset="1" stop-color="#EF3678"/>
</linearGradient>
</defs>
</svg>
